opsz144_wght1000_wdth125.ufo
<glyph name="A" format="2">
	<unicode hex="0041"/>
	<advance width="1380"/>
	<outline>
		<contour>
			<point x="-173.2918701172" y="0" type="line"/>
			<point x="-168.104675293" y="98.0002441406" type="line"/>
			<point x="51.6299438477" y="118.0002441406" type="line"/>
			<point x="253.7135009766" y="601.3894042969" type="line"/>
			<point x="725.2272949219" y="1500" type="line"/>
			<point x="951.4468383789" y="1500" type="line"/>
			<point x="988.6754150391" y="722" type="line"/>
			<point x="1036.5143432617" y="114.0002441406" type="line"/>
			<point x="1245.0316772461" y="99.0002441406" type="line"/>
			<point x="1232.3679199219" y="0" type="line"/>
			<point x="596.1487426758" y="0" type="line"/>
			<point x="618.8125" y="99.0002441406" type="line"/>
			<point x="846.3298339844" y="121.0002441406" type="line"/>
			<point x="807.7757568359" y="668" type="line"/>
			<point x="891" y="1166" type="line"/>
			<point x="886" y="1287" type="line"/>
			<point x="876" y="1287" type="line"/>
			<point x="799" y="1167" type="line"/>
			<point x="350.3028564453" y="554.3330078125" type="line"/>
			<point x="196.8001098633" y="117.0002441406" type="line"/>
			<point x="457.5779418945" y="98.0002441406" type="line"/>
			<point x="458.3907470703" y="0" type="line"/>
		</contour>
		<contour>
			<point x="275.5844726562" y="512.9431152344" type="line"/>
			<point x="319.0563964844" y="625.66796875" type="line"/>
			<point x="383.0212402344" y="542.6689453125" type="line"/>
			<point x="363.0202636719" y="431.1088867188" type="line"/>
		</contour>
		<contour>
			<point x="383.0212402344" y="542.6689453125" type="line"/>
			<point x="1020.4707641602" y="625.5012207031" type="line"/>
			<point x="1016.2929077148" y="515.2766113281" type="line"/>
			<point x="363.0202636719" y="431.1088867188" type="line"/>
		</contour>
	</outline>
	<anchor name="bottom" x="523" y="0"/>
	<anchor name="ogonek" x="1098" y="0"/>
	<anchor name="top" x="954" y="1500"/>
	<anchor name="tonos" x="613" y="1500"/>
</glyph>
<glyph name="B" format="2">
	<unicode hex="0042"/>
	<advance width="1285"/>
	<outline>
		<contour>
			<point x="-64.1306152344" y="0" type="line"/>
			<point x="-48.7705688477" y="99.0002441406" type="line"/>
			<point x="139.3547973633" y="111.0002441406" type="line"/>
			<point x="292.9947509766" y="806" type="line"/>
			<point x="419.8347167969" y="1376.8397216797" type="line"/>
			<point x="210.8834228516" y="1391.8397216797" type="line"/>
			<point x="223.0002441406" y="1500" type="line"/>
			<point x="718.1302490234" y="1500" type="line" smooth="yes"/>
			<point x="1006.5754394531" y="1500"/>
			<point x="1227.73828125" y="1314"/>
			<point x="1206.9510498047" y="1150" type="qcurve" smooth="yes"/>
			<point x="1187.4381713867" y="998"/>
			<point x="1006.7104492188" y="847"/>
			<point x="912.4224853516" y="824" type="qcurve"/>
			<point x="910.4224853516" y="817" type="line"/>
			<point x="1026.7660522461" y="798"/>
			<point x="1183.4838867188" y="579"/>
			<point x="1148.2532348633" y="402" type="qcurve" smooth="yes"/>
			<point x="1110.9708862305" y="214"/>
			<point x="819.0524902344" y="0"/>
			<point x="438.7150878906" y="0" type="qcurve" smooth="yes"/>
		</contour>
		<contour>
			<point x="300.3745727539" y="111.1691894531" type="line"/>
			<point x="317.7634887695" y="96.1137695312" type="line"/>
			<point x="537.2722167969" y="96.1137695312" type="line" smooth="yes"/>
			<point x="737.5354614258" y="96.1137695312"/>
			<point x="941.2833862305" y="224"/>
			<point x="984.3350830078" y="416" type="qcurve" smooth="yes"/>
			<point x="1024.3350830078" y="598"/>
			<point x="887.3062133789" y="741.0539550781"/>
			<point x="719.7182006836" y="741.0539550781" type="qcurve" smooth="yes"/>
			<point x="447.7070922852" y="741.0539550781" type="line"/>
			<point x="434.4849243164" y="732.6096191406" type="line"/>
		</contour>
		<contour>
			<point x="458.096496582" y="849.4453125" type="line"/>
			<point x="464.2632446289" y="842.66796875" type="line"/>
			<point x="734.5344238281" y="842.66796875" type="line" smooth="yes"/>
			<point x="882.3453979492" y="842.66796875"/>
			<point x="1018.6969604492" y="983"/>
			<point x="1044.3867797852" y="1123" type="qcurve" smooth="yes"/>
			<point x="1072.0765991211" y="1274"/>
			<point x="917.1763305664" y="1395.0524902344"/>
			<point x="765.967956543" y="1395.0524902344" type="qcurve" smooth="yes"/>
			<point x="598.8179321289" y="1395.0524902344" type="line"/>
			<point x="570.2068481445" y="1382.9970703125" type="line"/>
		</contour>
	</outline>
	<anchor name="bottom" x="630" y="0"/>
	<anchor name="top" x="630" y="1500"/>
</glyph>
<glyph name="D" format="2">
	<unicode hex="0044"/>
	<advance width="1421"/>
	<outline>
		<contour>
			<point x="-61.4207763672" y="0" type="line"/>
			<point x="-44.0607299805" y="99.0002441406" type="line"/>
			<point x="144.0646362305" y="118.0002441406" type="line"/>
			<point x="300.7045898438" y="811" type="line"/>
			<point x="423.9045410156" y="1381.8397216797" type="line"/>
			<point x="212.6857299805" y="1390.8397216797" type="line"/>
			<point x="223.6668701172" y="1500" type="line"/>
			<point x="935.9208984375" y="1500" type="line" smooth="yes"/>
			<point x="1119.6642456055" y="1500"/>
			<point x="1375.8016357422" y="1102.7259521484"/>
			<point x="1308.9937744141" y="751" type="qcurve" smooth="yes"/>
			<point x="1239.1585083008" y="382.0822143555"/>
			<point x="929.4848632812" y="0"/>
			<point x="638.4544677734" y="0" type="qcurve" smooth="yes"/>
		</contour>
		<contour>
			<point x="306.7476806641" y="103.7248535156" type="line"/>
			<point x="329.4053955078" y="96.7248535156"/>
			<point x="482.8391723633" y="87.7248535156"/>
			<point x="537.0997924805" y="87.7248535156" type="qcurve" smooth="yes"/>
			<point x="808.0688476562" y="87.7248535156"/>
			<point x="1066.5008544922" y="427.3344726562"/>
			<point x="1132.4991455078" y="775" type="qcurve" smooth="yes"/>
			<point x="1193.8041381836" y="1099.443359375"/>
			<point x="980.7133178711" y="1406.44140625"/>
			<point x="759.9729003906" y="1406.44140625" type="qcurve" smooth="yes"/>
			<point x="716.630065918" y="1406.44140625"/>
			<point x="626.7665405273" y="1401.44140625"/>
			<point x="591.1910400391" y="1397.44140625" type="qcurve"/>
			<point x="448.3582763672" y="759" type="line"/>
		</contour>
	</outline>
	<anchor name="bottom" x="686" y="0"/>
	<anchor name="center" x="448" y="754"/>
	<anchor name="top" x="827" y="1500"/>
	<anchor name="liga" x="1431" y="0"/>
</glyph>
<glyph name="E" format="2">
	<unicode hex="0045"/>
	<advance width="1355"/>
	<outline>
		<contour>
			<point x="-62.9981079102" y="0" type="line"/>
			<point x="-45.9423828125" y="99.0002441406" type="line"/>
			<point x="138.1397705078" y="115.0002441406" type="line"/>
			<point x="295.7797241211" y="807" type="line"/>
			<point x="421.0596923828" y="1378.8397216797" type="line"/>
			<point x="212.8040771484" y="1394.8397216797" type="line"/>
			<point x="224.0895385742" y="1500" type="line"/>
			<point x="1360.7444458008" y="1500" type="line"/>
			<point x="1274.4857177734" y="1126.5341796875" type="line"/>
			<point x="1169.6845092773" y="1126.5341796875" type="line"/>
			<point x="1141.7760009766" y="1400.8303222656" type="line"/>
			<point x="601.8944091797" y="1400.8303222656" type="line"/>
			<point x="572.8944091797" y="1378.8303222656" type="line"/>
			<point x="448.0616455078" y="773" type="line"/>
			<point x="308.8399658203" y="133.2805175781" type="line"/>
			<point x="339.8399658203" y="95.2805175781" type="line"/>
			<point x="885.9104614258" y="95.2805175781" type="line"/>
			<point x="1105.9807739258" y="409.5766601562" type="line"/>
			<point x="1217.9819946289" y="409.5766601562" type="line"/>
			<point x="1082.1333618164" y="0" type="line"/>
		</contour>
		<contour>
			<point x="343" y="776" type="line"/>
			<point x="361" y="858" type="line"/>
			<point x="938.243347168" y="809.5012207031" type="line"/>
			<point x="1051.7296142578" y="969.7973632812" type="line"/>
			<point x="1149.7309570312" y="969.7973632812" type="line"/>
			<point x="1055.5911865234" y="531.1467285156" type="line"/>
			<point x="955.5899658203" y="531.1467285156" type="line"/>
			<point x="922.4651489258" y="712.4428710938" type="line"/>
		</contour>
	</outline>
	<anchor name="bottom" x="518" y="0"/>
	<anchor name="ogonek" x="827" y="0"/>
	<anchor name="top" x="789" y="1500"/>
	<anchor name="tonos" x="81" y="1500"/>
</glyph>
<glyph name="F" format="2">
	<unicode hex="0046"/>
	<advance width="1223"/>
	<outline>
		<contour>
			<point x="-69.2699584961" y="0" type="line"/>
			<point x="-51.9099121094" y="99.0002441406" type="line"/>
			<point x="135.9165649414" y="117.0002441406" type="line"/>
			<point x="293.1165161133" y="813" type="line"/>
			<point x="409.4364624023" y="1380.8397216797" type="line"/>
			<point x="209.1840820312" y="1391.8397216797" type="line"/>
			<point x="221.165222168" y="1500" type="line"/>
			<point x="1274.3361206055" y="1500" type="line"/>
			<point x="1226.6605834961" y="1169.9742431641" type="line"/>
			<point x="1127.6594848633" y="1169.9742431641" type="line"/>
			<point x="1063.9456176758" y="1405.7194824219" type="line"/>
			<point x="610.3807983398" y="1405.7194824219" type="line"/>
			<point x="567.3807983398" y="1383.7194824219" type="line"/>
			<point x="436.7702026367" y="767" type="line"/>
			<point x="299.5702514648" y="116.0002441406" type="line"/>
			<point x="554.2550048828" y="99.0002441406" type="line"/>
			<point x="535.1992797852" y="0" type="line"/>
		</contour>
		<contour>
			<point x="332" y="751" type="line"/>
			<point x="351" y="851" type="line"/>
			<point x="861.6129760742" y="790.3903808594" type="line"/>
			<point x="963.794128418" y="937.2961425781" type="line"/>
			<point x="1053.7953491211" y="937.2961425781" type="line"/>
			<point x="966.8498535156" y="519.7038574219" type="line"/>
			<point x="876.8486328125" y="519.7038574219" type="line"/>
			<point x="838.0568237305" y="683.9985351562" type="line"/>
		</contour>
	</outline>
	<anchor name="bottom" x="578" y="0"/>
	<anchor name="top" x="622" y="1500"/>
</glyph>
<glyph name="G" format="2">
	<unicode hex="0047"/>
	<advance width="1532"/>
	<outline>
		<contour>
			<point x="97.2831420898" y="817" type="qcurve" smooth="yes"/>
			<point x="184.2831420898" y="1208"/>
			<point x="645.3104248047" y="1567.2487182617"/>
			<point x="942.083190918" y="1522.9338378906" type="qcurve" smooth="yes"/>
			<point x="1096.1383056641" y="1502.9886474609"/>
			<point x="1294.2360229492" y="1387.1121826172"/>
			<point x="1316.3447875977" y="1355.2668457031" type="qcurve" smooth="yes"/>
			<point x="1359.5628870031" y="1483.6000976562" type="line"/>
			<point x="1444.490194132" y="1484" type="line"/>
			<point x="1338.7605798742" y="990.7038574219" type="line"/>
			<point x="1223.1592615149" y="990.7038574219" type="line"/>
			<point x="1191.2879236242" y="1078.83984375" type="line"/>
			<point x="1184.1048583984" y="1204.7186889648"/>
			<point x="1020.6878662109" y="1385.0545654297"/>
			<point x="840.0889282227" y="1405.3747558594" type="qcurve" smooth="yes"/>
			<point x="621.5063476562" y="1435.1564331055"/>
			<point x="386.2633056641" y="1196"/>
			<point x="311.2907104492" y="839" type="qcurve" smooth="yes"/>
			<point x="227.2907104492" y="439.3889160156"/>
			<point x="397.3037109375" y="125.7357788086"/>
			<point x="592.0307617188" y="97.1474609375" type="qcurve" smooth="yes"/>
			<point x="701.4371337891" y="81.0629272461"/>
			<point x="903.0573120117" y="102.3918457031"/>
			<point x="963.137512207" y="135.6704101562" type="qcurve"/>
			<point x="1055.2560632727" y="548.1197509766" type="line"/>
			<point x="877.824178507" y="577.559753418" type="line"/>
			<point x="893.9739587805" y="677" type="line"/>
			<point x="1422.5728967688" y="677" type="line"/>
			<point x="1403.9344690344" y="577.1197509766" type="line"/>
			<point x="1228.2975061438" y="548.1197509766" type="line"/>
			<point x="1147.0975549719" y="182" type="line"/>
			<point x="1134.2423095703" y="168" type="line"/>
			<point x="1015.2091674805" y="55.7510375977"/>
			<point x="738.682434082" y="-40.8005371094"/>
			<point x="589.9165039062" y="-16.8005371094" type="qcurve" smooth="yes"/>
			<point x="315.0953979492" y="23.8432006836"/>
			<point x="20.2831420898" y="470"/>
		</contour>
	</outline>
	<anchor name="bottom" x="667" y="0"/>
	<anchor name="top" x="907" y="1492"/>
</glyph>
<glyph name="H" format="2">
	<unicode hex="0048"/>
	<advance width="1646"/>
	<outline>
		<contour>
			<point x="-64.434387207" y="0" type="line"/>
			<point x="-47.0743408203" y="99.0002441406" type="line"/>
			<point x="138.6164550781" y="114.0002441406" type="line"/>
			<point x="290.2564086914" y="794" type="line"/>
			<point x="413.6963500977" y="1371.9996948242" type="line"/>
			<point x="209.7207641602" y="1392.3997192383" type="line"/>
			<point x="221.6532592773" y="1500" type="line"/>
			<point x="797.4758300781" y="1500" type="line"/>
			<point x="778.1000976562" y="1392.3997192383" type="line"/>
			<point x="571.4422607422" y="1371.9996948242" type="line"/>
			<point x="447.2639770508" y="768" type="line"/>
			<point x="306.6240234375" y="119.0002441406" type="line"/>
			<point x="511.5666503906" y="99.0002441406" type="line"/>
			<point x="501.6498413086" y="0" type="line"/>
		</contour>
		<contour>
			<point x="346" y="738" type="line"/>
			<point x="367" y="855" type="line"/>
			<point x="819.6082763672" y="813.3349609375" type="line"/>
			<point x="1193.4146118164" y="822.890625" type="line"/>
			<point x="1175.2473754883" y="706.1098632812" type="line"/>
			<point x="798.8649902344" y="712.6655273438" type="line"/>
		</contour>
		<contour>
			<point x="812.589050293" y="0" type="line"/>
			<point x="829.9490966797" y="99.0002441406" type="line"/>
			<point x="1026.6398925781" y="119.0002441406" type="line"/>
			<point x="1174.2798461914" y="764" type="line"/>
			<point x="1301.7197875977" y="1371.9996948242" type="line"/>
			<point x="1130.7442016602" y="1392.3997192383" type="line"/>
			<point x="1142.6766967773" y="1500" type="line"/>
			<point x="1706.9078979492" y="1500" type="line"/>
			<point x="1687.5321655273" y="1392.3997192383" type="line"/>
			<point x="1471.1786499023" y="1371.9996948242" type="line"/>
			<point x="1334.7387084961" y="748" type="line"/>
			<point x="1196.0987548828" y="119.0002441406" type="line"/>
			<point x="1410.7370605469" y="99.0002441406" type="line"/>
			<point x="1400.8202514648" y="0" type="line"/>
		</contour>
	</outline>
	<anchor name="bottom" x="607" y="0"/>
	<anchor name="center" x="820" y="1079"/>
	<anchor name="top" x="950" y="1500"/>
	<anchor name="tonos" x="81" y="1500"/>
	<anchor name="cy_descender" x="1399" y="100"/>
</glyph>
<glyph name="I" format="2">
	<unicode hex="0049"/>
	<advance width="780"/>
	<outline>
		<contour>
			<point x="-59.3314819336" y="0" type="line"/>
			<point x="-53.2757568359" y="97.8802490234" type="line"/>
			<point x="154.5452880859" y="110.8802490234" type="line"/>
			<point x="321.4895629883" y="820" type="line"/>
			<point x="437.8095092773" y="1379.8397216797" type="line"/>
			<point x="218.0793457031" y="1390.8397216797" type="line"/>
			<point x="228.7561645508" y="1500" type="line"/>
			<point x="839.6899414062" y="1500" type="line"/>
			<point x="821.5698852539" y="1390.8397216797" type="line"/>
			<point x="596.748840332" y="1379.8397216797" type="line"/>
			<point x="465.8688964844" y="767" type="line"/>
			<point x="330.924621582" y="119.8802490234" type="line"/>
			<point x="554.6148071289" y="98.8802490234" type="line"/>
			<point x="533.5590820312" y="0" type="line"/>
		</contour>
	</outline>
	<anchor name="bottom" x="220" y="0"/>
	<anchor name="ogonek" x="356" y="0"/>
	<anchor name="top" x="503" y="1500"/>
	<anchor name="tonos" x="81" y="1500"/>
	<anchor name="yu_dash" x="365" y="795"/>
	<anchor name="liga" x="712" y="0"/>
</glyph>
<glyph name="J" format="2">
	<unicode hex="004A"/>
	<advance width="744"/>
	<outline>
		<contour>
			<point x="-124.0319213867" y="-261.6743164062" type="qcurve"/>
			<point x="-102.1976928711" y="-162.0043945312" type="line"/>
			<point x="-81.4598999023" y="-162.4487304688"/>
			<point x="-33.3344726562" y="-167.0598144531"/>
			<point x="-0.6091308594" y="-167.0598144531" type="qcurve" smooth="yes"/>
			<point x="59.5136108398" y="-167.0598144531"/>
			<point x="126.7556762695" y="-111.0981445312"/>
			<point x="152.7556762695" y="22.994140625" type="qcurve" smooth="yes"/>
			<point x="288.0491333008" y="754" type="line"/>
			<point x="421.3690795898" y="1381.8397216797" type="line"/>
			<point x="212.2043457031" y="1391.8397216797" type="line"/>
			<point x="223.8811645508" y="1500" type="line"/>
			<point x="797.3803710938" y="1500" type="line"/>
			<point x="786.7035522461" y="1391.8397216797" type="line"/>
			<point x="573.7484130859" y="1379.8397216797" type="line"/>
			<point x="445.4284667969" y="754" type="line"/>
			<point x="312.1350097656" y="76.994140625" type="line" smooth="yes"/>
			<point x="278.1350097656" y="-94.1904296875"/>
			<point x="99.8770141602" y="-285.6743164062"/>
			<point x="-38.8160400391" y="-285.6743164062" type="qcurve" smooth="yes"/>
			<point x="-65.8176269531" y="-285.6743164062"/>
			<point x="-125.7028198242" y="-269.5075683594"/>
		</contour>
	</outline>
	<anchor name="bottom" x="376" y="-208"/>
	<anchor name="top" x="533" y="1500"/>
	<anchor name="_liga" x="0" y="0"/>
</glyph>
<glyph name="K" format="2">
	<unicode hex="004B"/>
	<advance width="1260"/>
	<outline>
		<contour>
			<point x="-60.6873779297" y="0" type="line"/>
			<point x="-50.7705688477" y="99.0002441406" type="line"/>
			<point x="136.3547973633" y="114.0002441406" type="line"/>
			<point x="296.3947753906" y="790" type="line"/>
			<point x="424.6747436523" y="1378.8397216797" type="line"/>
			<point x="214.723449707" y="1390.8397216797" type="line"/>
			<point x="225.4002685547" y="1500" type="line"/>
			<point x="798.7052612305" y="1500" type="line"/>
			<point x="786.0284423828" y="1390.8397216797" type="line"/>
			<point x="586.8592529297" y="1378.8397216797" type="line"/>
			<point x="458.579284668" y="773" type="line"/>
			<point x="311" y="124" type="line"/>
			<point x="518.0560302734" y="99.0002441406" type="line"/>
			<point x="505.1392211914" y="0" type="line"/>
		</contour>
		<contour>
			<point x="303" y="540" type="line"/>
			<point x="331" y="693" type="line"/>
			<point x="1026.005859375" y="1370.8397216797" type="line"/>
			<point x="759.2261962891" y="1391.8397216797" type="line"/>
			<point x="775.9030151367" y="1500" type="line"/>
			<point x="1468.5520629883" y="1500" type="line"/>
			<point x="1451.8752441406" y="1391.8397216797" type="line"/>
			<point x="1192.009765625" y="1369.8397216797" type="line"/>
		</contour>
		<contour>
			<point x="589" y="874" type="line"/>
			<point x="717" y="993" type="line"/>
			<point x="1010.7583618164" y="115.0002441406" type="line"/>
			<point x="1206.1454467773" y="99.0002441406" type="line"/>
			<point x="1196.2286376953" y="0" type="line"/>
			<point x="575.2693481445" y="0" type="line"/>
			<point x="589.1861572266" y="99.0002441406" type="line"/>
			<point x="875" y="124" type="line"/>
		</contour>
	</outline>
	<anchor name="bottom" x="607" y="0"/>
	<anchor name="top" x="896" y="1500"/>
	<anchor name="kai_tail" x="1201" y="100"/>
</glyph>
<glyph name="L" format="2">
	<unicode hex="004C"/>
	<advance width="1173"/>
	<outline>
		<contour>
			<point x="-61.5134887695" y="0" type="line"/>
			<point x="-51.852355957" y="99.0002441406" type="line"/>
			<point x="137.2730102539" y="110.0002441406" type="line"/>
			<point x="301.1929931641" y="796" type="line"/>
			<point x="423.592956543" y="1379.2797241211" type="line"/>
			<point x="205.294128418" y="1390.2797241211" type="line"/>
			<point x="217.5309448242" y="1500" type="line"/>
			<point x="803.0733642578" y="1500" type="line"/>
			<point x="789.8365478516" y="1390.2797241211" type="line"/>
			<point x="576.9722900391" y="1379.2797241211" type="line"/>
			<point x="444.5723266602" y="768" type="line"/>
			<point x="303.0706176758" y="129.2805175781" type="line"/>
			<point x="330.0706176758" y="95.2805175781" type="line"/>
			<point x="799.8647460938" y="95.2805175781" type="line"/>
			<point x="1043.6750488281" y="464.1427612305" type="line"/>
			<point x="1153.8764038086" y="464.1427612305" type="line"/>
			<point x="1011.0092163086" y="0" type="line"/>
		</contour>
	</outline>
	<anchor name="bottom" x="535" y="0"/>
	<anchor name="centerright" x="755" y="750"/>
	<anchor name="top" x="878" y="1500"/>
	<anchor name="topright" x="804" y="1001"/>
	<anchor name="center" x="397" y="750"/>
	<anchor name="liga" x="1104" y="0"/>
</glyph>
<glyph name="M" format="2">
	<unicode hex="004D"/>
	<advance width="1891"/>
	<outline>
		<contour>
			<point x="-64.2210693359" y="0" type="line"/>
			<point x="-56.3042602539" y="99.0002441406" type="line"/>
			<point x="197.9081420898" y="144.0002441406" type="line"/>
			<point x="341.6950683594" y="744" type="line"/>
			<point x="479.2280883789" y="1354.8397216797" type="line"/>
			<point x="224.9286499023" y="1391.8397216797" type="line"/>
			<point x="241.60546875" y="1500" type="line"/>
			<point x="725.0673828125" y="1500" type="line"/>
			<point x="809.03515625" y="681.2728271484" type="line"/>
			<point x="815" y="327" type="line"/>
			<point x="831" y="213" type="line"/>
			<point x="841" y="213" type="line"/>
			<point x="900" y="327" type="line"/>
			<point x="1218.9331054688" y="935.7084960938" type="line"/>
			<point x="1503.9893798828" y="1500" type="line"/>
			<point x="1948.2319946289" y="1500" type="line"/>
			<point x="1928.6005859375" y="1390.8397216797" type="line"/>
			<point x="1709.3011474609" y="1370.8397216797" type="line"/>
			<point x="1570.5411987305" y="724" type="line"/>
			<point x="1437.5012207031" y="124.0002441406" type="line"/>
			<point x="1661.8438720703" y="99.0002441406" type="line"/>
			<point x="1649.9270629883" y="0" type="line"/>
			<point x="1060.3408203125" y="0" type="line"/>
			<point x="1068.2576293945" y="99.0002441406" type="line"/>
			<point x="1279.121887207" y="124.0002441406" type="line"/>
			<point x="1419.1618652344" y="737.2743530273" type="line"/>
			<point x="1580" y="1244" type="line"/>
			<point x="1606" y="1363" type="line"/>
			<point x="1597" y="1365" type="line"/>
			<point x="1539" y="1258" type="line"/>
			<point x="1277.2738037109" y="835.6149902344" type="line"/>
			<point x="820.5239868164" y="0" type="line"/>
			<point x="753.8929443359" y="0" type="line"/>
			<point x="669.2794799805" y="721.3546142578" type="line"/>
			<point x="499" y="1249" type="line"/>
			<point x="485" y="1357" type="line"/>
			<point x="474" y="1355" type="line"/>
			<point x="456" y="1235" type="line"/>
			<point x="440.3953857422" y="733" type="line"/>
			<point x="309.1443481445" y="144.0002441406" type="line"/>
			<point x="559.704284668" y="99.0002441406" type="line"/>
			<point x="547.3442382812" y="0" type="line"/>
		</contour>
	</outline>
	<anchor name="bottom" x="768" y="0"/>
	<anchor name="top" x="1048" y="1500"/>
</glyph>
<glyph name="N" format="2">
	<unicode hex="004E"/>
	<advance width="1598"/>
	<outline>
		<contour>
			<point x="-89.965637207" y="0" type="line"/>
			<point x="-83.048828125" y="99.0002441406" type="line"/>
			<point x="164.0765380859" y="143.0002441406" type="line"/>
			<point x="308.1165161133" y="753" type="line"/>
			<point x="447.396484375" y="1358.8397216797" type="line"/>
			<point x="193.4884033203" y="1392.8397216797" type="line"/>
			<point x="208.165222168" y="1500" type="line"/>
			<point x="814.5186157227" y="1500" type="line"/>
			<point x="944.3929443359" y="789.5097045898" type="line"/>
			<point x="958" y="418" type="line"/>
			<point x="990" y="317" type="line"/>
			<point x="1001" y="319" type="line"/>
			<point x="1024" y="440" type="line"/>
			<point x="1161.2178955078" y="746" type="line"/>
			<point x="1294.6178588867" y="1354.3997192383" type="line"/>
			<point x="1033.2319946289" y="1391.3997192383" type="line"/>
			<point x="1051.7017822266" y="1500" type="line"/>
			<point x="1661.0224609375" y="1500" type="line"/>
			<point x="1654.5526733398" y="1389.3997192383" type="line"/>
			<point x="1390.731628418" y="1354.3997192383" type="line"/>
			<point x="1256.3316650391" y="748" type="line"/>
			<point x="1102.3316650391" y="0" type="line"/>
			<point x="891.8145751953" y="0" type="line"/>
			<point x="740.2406616211" y="803.6551513672" type="line"/>
			<point x="507" y="1220" type="line"/>
			<point x="471" y="1324" type="line"/>
			<point x="461" y="1321" type="line"/>
			<point x="442" y="1199" type="line"/>
			<point x="407.8413696289" y="743" type="line"/>
			<point x="267.8013916016" y="143.0002441406" type="line"/>
			<point x="520.4483642578" y="99.0002441406" type="line"/>
			<point x="511.5315551758" y="0" type="line"/>
		</contour>
	</outline>
	<anchor name="bottom" x="640" y="0"/>
	<anchor name="top" x="884" y="1500"/>
	<anchor name="engtail" x="1041" y="0"/>
	<anchor name="liga" x="1432" y="0"/>
</glyph>
<glyph name="O" format="2">
	<unicode hex="004F"/>
	<advance width="1617"/>
	<outline>
		<contour>
			<point x="88.3202749122" y="804" type="qcurve" smooth="yes"/>
			<point x="176.9485097755" y="1210"/>
			<point x="721.6568227638" y="1556.9755249023"/>
			<point x="992.2529531349" y="1519.9338378906" type="qcurve" smooth="yes"/>
			<point x="1263.8348012794" y="1482.303527832"/>
			<point x="1545.9607168067" y="1000"/>
			<point x="1456.4298940528" y="635" type="qcurve" smooth="yes"/>
			<point x="1372.1734243263" y="295"/>
			<point x="903.9565401455" y="-61.7804383149"/>
			<point x="565.0300527442" y="-18.8005371094" type="qcurve" smooth="yes"/>
			<point x="234.3944587893" y="23.8317782598"/>
			<point x="22.6920400489" y="510"/>
		</contour>
		<contour>
			<point x="294.3570538555" y="857" type="qcurve" smooth="yes"/>
			<point x="216.1611920391" y="519.6492919922"/>
			<point x="332.4519024883" y="113.7026367188"/>
			<point x="551.2786847149" y="84.7026367188" type="qcurve" smooth="yes"/>
			<point x="778.3848858868" y="54.7026367188"/>
			<point x="1183.8883038555" y="374.4639892578"/>
			<point x="1262.3362408672" y="707" type="qcurve" smooth="yes"/>
			<point x="1342.7504864727" y="1070.8759765625"/>
			<point x="1143.8757306133" y="1395.0417480469"/>
			<point x="955.522092918" y="1416.0417480469" type="qcurve" smooth="yes"/>
			<point x="731.5233136211" y="1441.0417480469"/>
			<point x="364.4446393047" y="1164.9938964844"/>
		</contour>
	</outline>
	<anchor name="bottom" x="612" y="0"/>
	<anchor name="center" x="765" y="756"/>
	<anchor name="ogonek" x="844" y="0"/>
	<anchor name="top" x="906" y="1500"/>
	<anchor name="topright" x="1044" y="1500"/>
	<anchor name="tonos" x="230" y="1500"/>
	<anchor name="_yu_dash" x="174" y="795"/>
</glyph>
<glyph name="P" format="2">
	<unicode hex="0050"/>
	<advance width="1291"/>
	<outline>
		<contour>
			<point x="-66.2011108398" y="0" type="line"/>
			<point x="-55.2843017578" y="98.0002441406" type="line"/>
			<point x="132.1453857422" y="112.0002441406" type="line"/>
			<point x="299.1853637695" y="836" type="line"/>
			<point x="420.4653320312" y="1380.8397216797" type="line"/>
			<point x="210.2529296875" y="1391.8397216797" type="line"/>
			<point x="222.5383911133" y="1500" type="line"/>
			<point x="1033.0182495117" y="1500" type="line" smooth="yes"/>
			<point x="1134.4055786133" y="1500"/>
			<point x="1301.5562133789" y="1260"/>
			<point x="1277.7788696289" y="1065" type="qcurve" smooth="yes"/>
			<point x="1254.0015258789" y="870"/>
			<point x="1072.2924804688" y="573.0529785156"/>
			<point x="831.4204711914" y="573.0529785156" type="qcurve" smooth="yes"/>
			<point x="657.3332519531" y="573.0529785156"/>
			<point x="422.7012329102" y="628.4418945312"/>
			<point x="366.4496459961" y="648.4973144531" type="qcurve"/>
			<point x="384.839050293" y="735" type="line"/>
			<point x="425.8228759766" y="720"/>
			<point x="619.2412109375" y="675"/>
			<point x="724.3446044922" y="675" type="qcurve" smooth="yes"/>
			<point x="875.7258300781" y="675"/>
			<point x="1018.3477783203" y="871"/>
			<point x="1048.3477783203" y="1055" type="qcurve" smooth="yes"/>
			<point x="1080.3477783203" y="1246"/>
			<point x="940.5068969727" y="1396.6081542969"/>
			<point x="742.5408325195" y="1396.6081542969" type="qcurve" smooth="yes"/>
			<point x="578.6718139648" y="1396.6081542969" type="line"/>
			<point x="565.2828979492" y="1380.6081542969" type="line"/>
			<point x="438.839050293" y="764" type="line"/>
			<point x="292.7990722656" y="116.0002441406" type="line"/>
			<point x="521.8806152344" y="99.0002441406" type="line"/>
			<point x="509.9638061523" y="0" type="line"/>
		</contour>
	</outline>
	<anchor name="bottom" x="634" y="0"/>
	<anchor name="top" x="634" y="1500"/>
</glyph>
<glyph name="Q" format="2">
	<unicode hex="0051"/>
	<advance width="1598"/>
	<outline>
		<contour>
			<point x="97.6200051328" y="804" type="qcurve" smooth="yes"/>
			<point x="186.2482399961" y="1210"/>
			<point x="821.171875" y="1541.7369384766"/>
			<point x="1001.5526833554" y="1519.9338378906" type="qcurve" smooth="yes"/>
			<point x="1322.7136230469" y="1482.303527832"/>
			<point x="1556.0134987851" y="1000"/>
			<point x="1465.7296242734" y="635" type="qcurve" smooth="yes"/>
			<point x="1380.9552001953" y="295"/>
			<point x="900.0370583554" y="-55.0741577148"/>
			<point x="574.6663918515" y="-11.3342285156" type="qcurve" smooth="yes"/>
			<point x="241.6627297422" y="33.5004272461"/>
			<point x="31.9917702695" y="510"/>
		</contour>
		<contour>
			<point x="303.8402810117" y="857" type="qcurve" smooth="yes"/>
			<point x="225.1528420468" y="519.6492919922"/>
			<point x="346.1485595703" y="113.501953125"/>
			<point x="565.0936279297" y="84.501953125" type="qcurve" smooth="yes"/>
			<point x="792.1998291016" y="54.501953125"/>
			<point x="1193.835703375" y="374.709777832"/>
			<point x="1271.8194680234" y="707" type="qcurve" smooth="yes"/>
			<point x="1351.7695412656" y="1070.3843994141"/>
			<point x="1153.3589577695" y="1395.0417480469"/>
			<point x="965.0053200742" y="1416.0417480469" type="qcurve" smooth="yes"/>
			<point x="741.0065407773" y="1441.0417480469"/>
			<point x="375.145090582" y="1164.9938964844"/>
		</contour>
		<contour>
			<point x="293.1401977539" y="-54.7435302734" type="qcurve"/>
			<point x="345.68359375" y="-50.5728759766" type="line"/>
			<point x="912.8658447266" y="-185.4307250977" type="line" smooth="yes"/>
			<point x="1079.7185668945" y="-240.0233154297"/>
			<point x="1268.9996337891" y="-156.7546386719"/>
			<point x="1324.8778076172" y="-69.8154907227" type="qcurve"/>
			<point x="1414.6060180664" y="-115.7017822266" type="line"/>
			<point x="1421.9642944336" y="-111.7761230469"/>
			<point x="1120.8726196289" y="-360.9813232422"/>
			<point x="975.8547363281" y="-354.645324707" type="qcurve"/>
			<point x="262.5816040039" y="-220.294128418" type="line"/>
			<point x="155.5157470703" y="-197.6054077148"/>
			<point x="18.4382324219" y="-228.1682739258"/>
			<point x="-28.4547729492" y="-278.0531616211" type="qcurve"/>
			<point x="-58.7752075195" y="-250.7522583008" type="line"/>
			<point x="-96.5165405273" y="-217.0521240234"/>
			<point x="165.053527832" y="-55.4724731445"/>
		</contour>
		<contour>
			<point x="217.0172729492" y="-0.7731323242" type="line"/>
			<point x="344.2387695312" y="-2.5349731445"/>
			<point x="635.5653686523" y="177.7036132812"/>
			<point x="686.532043457" y="246.3064575195" type="qcurve" smooth="yes"/>
			<point x="686.5303344727" y="247.3076782227"/>
			<point x="702.6405639648" y="247.6179199219"/>
			<point x="711.7769775391" y="248.7846679688" type="qcurve"/>
			<point x="735.3902587891" y="240.6488647461"/>
			<point x="768.0069580078" y="209.655456543"/>
			<point x="781.5643310547" y="200.4899291992" type="qcurve"/>
			<point x="781.0109863281" y="192.8794555664"/>
			<point x="778.5969848633" y="187.7943115234"/>
			<point x="775.8482666016" y="186.0700683594" type="qcurve" smooth="yes"/>
			<point x="705.6818847656" y="111.206237793"/>
			<point x="453.5771484375" y="-37.3435058594"/>
			<point x="396.6022949219" y="-24.7473144531" type="qcurve"/>
		</contour>
	</outline>
	<anchor name="bottom" x="832" y="0"/>
	<anchor name="top" x="832" y="1500"/>
</glyph>
<glyph name="R" format="2">
	<unicode hex="0052"/>
	<advance width="1375"/>
	<outline>
		<contour>
			<point x="-73.6720581055" y="0" type="line"/>
			<point x="-56.3120117188" y="99.0002441406" type="line"/>
			<point x="133.8133544922" y="112.0002441406" type="line"/>
			<point x="292.4533081055" y="836" type="line"/>
			<point x="407.7732543945" y="1378.8397216797" type="line"/>
			<point x="201.5208740234" y="1391.8397216797" type="line"/>
			<point x="213.5020141602" y="1500" type="line"/>
			<point x="815.1312255859" y="1500" type="line" smooth="yes"/>
			<point x="1041.9837036133" y="1500"/>
			<point x="1246.4026489258" y="1295"/>
			<point x="1223.833984375" y="1098" type="qcurve" smooth="yes"/>
			<point x="1203.2136230469" y="924"/>
			<point x="992.7957763672" y="672.5541992188"/>
			<point x="920.5863647461" y="672.5541992188" type="qcurve" smooth="yes"/>
			<point x="843.8270874023" y="672.5541992188"/>
			<point x="592.4265136719" y="678.5541992188"/>
			<point x="533.3909912109" y="682.5541992188" type="qcurve"/>
			<point x="547.3914794922" y="780.3344726562" type="line"/>
			<point x="499.9439697266" y="774.3344726562" type="line"/>
			<point x="656.0181884766" y="774.3344726562" type="line" smooth="yes"/>
			<point x="824.2265625" y="774.3344726562"/>
			<point x="1036.6693115234" y="978"/>
			<point x="1055.7210083008" y="1142" type="qcurve" smooth="yes"/>
			<point x="1074.7727050781" y="1309"/>
			<point x="916.9796142578" y="1396.8303222656"/>
			<point x="788.1192626953" y="1396.8303222656" type="qcurve" smooth="yes"/>
			<point x="580.6654052734" y="1396.8303222656" type="line"/>
			<point x="557.2764892578" y="1368.8303222656" type="line"/>
			<point x="431.8326416016" y="731" type="line"/>
			<point x="298.1926879883" y="117.0002441406" type="line"/>
			<point x="502.2310180664" y="99.0002441406" type="line"/>
			<point x="490.8709716797" y="0" type="line"/>
		</contour>
		<contour>
			<point x="670.7377319336" y="727.2968139648" type="line"/>
			<point x="867.8765869141" y="750.5686645508" type="line"/>
			<point x="889.5186157227" y="699.3618774414" type="line" smooth="yes"/>
			<point x="1013.7243652344" y="313.4871826172"/>
			<point x="1203.6896362305" y="82.3603515625"/>
			<point x="1380.2771606445" y="89.5602416992" type="qcurve"/>
			<point x="1349.1930541992" y="0" type="line"/>
			<point x="1374.3364257812" y="0" type="line" smooth="yes"/>
			<point x="1102.4384155273" y="0"/>
			<point x="788.205871582" y="274.1829833984"/>
			<point x="701.7634887695" y="658.1392822266" type="qcurve" smooth="yes"/>
		</contour>
	</outline>
	<anchor name="bottom" x="573" y="0"/>
	<anchor name="top" x="670" y="1500"/>
</glyph>
<glyph name="T" format="2">
	<unicode hex="0054"/>
	<advance width="1311"/>
	<outline>
		<contour>
			<point x="104.7749023438" y="1115.83203125" type="line"/>
			<point x="182.1039428711" y="1500" type="line"/>
			<point x="1415.0717773438" y="1500" type="line"/>
			<point x="1337.7427368164" y="1115.83203125" type="line"/>
			<point x="1236.7415161133" y="1115.83203125" type="line"/>
			<point x="1264.9047851562" y="1400.8303222656" type="line"/>
			<point x="879.1729125977" y="1400.8303222656" type="line"/>
			<point x="852.1729125977" y="1384.8303222656" type="line"/>
			<point x="725.3401489258" y="754" type="line"/>
			<point x="596.1401977539" y="107.0002441406" type="line"/>
			<point x="826.8114624023" y="99.0002441406" type="line"/>
			<point x="815.6389770508" y="0" type="line"/>
			<point x="189.7887573242" y="0" type="line"/>
			<point x="200.9612426758" y="99.0002441406" type="line"/>
			<point x="415.5839233398" y="107.0002441406" type="line"/>
			<point x="560.7838745117" y="754" type="line"/>
			<point x="695.6166381836" y="1384.8303222656" type="line"/>
			<point x="678.6166381836" y="1400.8303222656" type="line"/>
			<point x="304.9364624023" y="1400.8303222656" type="line"/>
			<point x="206.7761230469" y="1115.83203125" type="line"/>
		</contour>
	</outline>
	<anchor name="bottom" x="451" y="0"/>
	<anchor name="center" x="584" y="750"/>
	<anchor name="top" x="732" y="1500"/>
	<anchor name="cy_descender" x="755" y="100"/>
</glyph>
<glyph name="V" format="2">
	<unicode hex="0056"/>
	<advance width="1154"/>
	<outline>
		<contour>
			<point x="-8.7089233398" y="1393.8397216797" type="line"/>
			<point x="9.9224853516" y="1500" type="line"/>
			<point x="626.6760253906" y="1500" type="line"/>
			<point x="608.0446166992" y="1393.8397216797" type="line"/>
			<point x="365.1304931641" y="1365.8397216797" type="line"/>
			<point x="406.8988037109" y="802.0857543945" type="line"/>
			<point x="438" y="390" type="line"/>
			<point x="442" y="261" type="line"/>
			<point x="460" y="261" type="line"/>
			<point x="527" y="390" type="line"/>
			<point x="760.0137939453" y="828.9888916016" type="line"/>
			<point x="1018.12890625" y="1347.8397216797" type="line"/>
			<point x="749.8759155273" y="1393.8397216797" type="line"/>
			<point x="770.552734375" y="1500" type="line"/>
			<point x="1419.7048339844" y="1500" type="line"/>
			<point x="1409.4169311523" y="1393.8397216797" type="line"/>
			<point x="1140.2438964844" y="1356.8397216797" type="line"/>
			<point x="837.6466674805" y="762.4345092773" type="line"/>
			<point x="453.1851806641" y="0" type="line"/>
			<point x="317.9052734375" y="0" type="line"/>
			<point x="253.2310180664" y="741.4573974609" type="line"/>
			<point x="213.2819824219" y="1360.8397216797" type="line"/>
		</contour>
	</outline>
	<anchor name="bottom" x="373" y="0"/>
	<anchor name="top" x="743" y="1500"/>
</glyph>
<glyph name="W" format="2">
	<unicode hex="0057"/>
	<advance width="1683"/>
	<outline>
		<contour>
			<point x="27.3076171875" y="1393.8397216797" type="line"/>
			<point x="42.1719970703" y="1500" type="line"/>
			<point x="667.3094482422" y="1500" type="line"/>
			<point x="652.4450683594" y="1393.8397216797" type="line"/>
			<point x="419.2752685547" y="1361.8397216797" type="line"/>
			<point x="409.9786376953" y="803.3583984375" type="line"/>
			<point x="410" y="400" type="line"/>
			<point x="410" y="271" type="line"/>
			<point x="427" y="271" type="line"/>
			<point x="497" y="400" type="line"/>
			<point x="617.2258300781" y="615.6461181641" type="line"/>
			<point x="913" y="1121" type="line"/>
			<point x="830.128112793" y="1355.3597412109" type="line"/>
			<point x="630.6972045898" y="1390.3597412109" type="line"/>
			<point x="646.9372558594" y="1500" type="line"/>
			<point x="1246.7919311523" y="1500" type="line"/>
			<point x="1231.1605224609" y="1402.8397216797" type="line"/>
			<point x="1023.2080078125" y="1351.8397216797" type="line"/>
			<point x="1011.0880126953" y="764.6889648438" type="line"/>
			<point x="1094" y="400" type="line"/>
			<point x="1094" y="271" type="line"/>
			<point x="1111" y="271" type="line"/>
			<point x="1177" y="400" type="line"/>
			<point x="1321.8473510742" y="785.8406982422" type="line"/>
			<point x="1524.8861083984" y="1346.8397216797" type="line"/>
			<point x="1225.5434570312" y="1393.8397216797" type="line"/>
			<point x="1246.2202758789" y="1500" type="line"/>
			<point x="1910.465637207" y="1500" type="line"/>
			<point x="1972" y="1385" type="line"/>
			<point x="1654.6190185547" y="1356.3997192383" type="line"/>
			<point x="1413.9771118164" y="735.2493896484" type="line"/>
			<point x="1100.5601806641" y="0" type="line"/>
			<point x="833.7535400391" y="0" type="line"/>
			<point x="923" y="805" type="line"/>
			<point x="921" y="934" type="line"/>
			<point x="911" y="934" type="line"/>
			<point x="844" y="805" type="line"/>
			<point x="525.3782958984" y="0" type="line"/>
			<point x="262.3687744141" y="0" type="line"/>
			<point x="248.9273071289" y="736.3583984375" type="line"/>
			<point x="219.8249511719" y="1362.8397216797" type="line"/>
		</contour>
	</outline>
	<anchor name="bottom" x="691" y="0"/>
	<anchor name="top" x="981" y="1500"/>
</glyph>
<glyph name="X" format="2">
	<unicode hex="0058"/>
	<advance width="1465"/>
	<outline>
		<contour>
			<point x="-110.1663818359" y="0" type="line"/>
			<point x="-101.2495727539" y="99.0002441406" type="line"/>
			<point x="118.6159057617" y="125.0002441406" type="line"/>
			<point x="513" y="764" type="line"/>
			<point x="400.8190307617" y="1364.8397216797" type="line"/>
			<point x="198.5621948242" y="1390.8397216797" type="line"/>
			<point x="215.2390136719" y="1500" type="line"/>
			<point x="784.1395263672" y="1500" type="line"/>
			<point x="767.4627075195" y="1389.8397216797" type="line"/>
			<point x="540.1188354492" y="1368.8397216797" type="line"/>
			<point x="581" y="1027" type="line"/>
			<point x="627" y="913" type="line"/>
			<point x="638" y="913" type="line"/>
			<point x="724" y="1027" type="line"/>
			<point x="1152.9611206055" y="1351.8397216797" type="line"/>
			<point x="915.5740356445" y="1390.8397216797" type="line"/>
			<point x="932.2508544922" y="1500" type="line"/>
			<point x="1572.8977050781" y="1500" type="line"/>
			<point x="1555.2208862305" y="1390.8397216797" type="line"/>
			<point x="1298.3121948242" y="1359.8397216797" type="line"/>
			<point x="670" y="808" type="line"/>
			<point x="1102.9437255859" y="118.0002441406" type="line"/>
			<point x="1327.6351318359" y="99.0002441406" type="line"/>
			<point x="1308.7183227539" y="0" type="line"/>
			<point x="703.8662109375" y="0" type="line"/>
			<point x="721.7830200195" y="99.0002441406" type="line"/>
			<point x="951.4312133789" y="118.0002441406" type="line"/>
			<point x="603" y="544" type="line"/>
			<point x="556" y="658" type="line"/>
			<point x="546" y="658" type="line"/>
			<point x="461" y="544" type="line"/>
			<point x="253.301574707" y="133.0002441406" type="line"/>
			<point x="526.688659668" y="99.0002441406" type="line"/>
			<point x="507.7718505859" y="0" type="line"/>
		</contour>
	</outline>
	<anchor name="bottom" x="453" y="0"/>
	<anchor name="top" x="723" y="1500"/>
	<anchor name="cy_descender" x="1125" y="100"/>
	<anchor name="center" x="591" y="791"/>
</glyph>
<glyph name="a" format="2">
	<unicode hex="0061"/>
	<advance width="1133"/>
	<outline>
		<contour>
			<point x="-1.2513427734" y="278" type="qcurve" smooth="yes"/>
			<point x="5.7486572266" y="612.6752929688"/>
			<point x="473.0344975169" y="1029.6748046875"/>
			<point x="612.1823857005" y="1029.6748046875" type="qcurve" smooth="yes"/>
			<point x="733.3655522044" y="1029.6748046875"/>
			<point x="808.9956665039" y="977.6748046875"/>
			<point x="834.7591552734" y="948.6748046875" type="qcurve"/>
			<point x="912.2354125977" y="1011.6748046875" type="line"/>
			<point x="995.6663818359" y="1004.6748046875" type="line"/>
			<point x="1042.4339726146" y="920.6748046875" type="line"/>
			<point x="913.6176273997" y="448" type="line"/>
			<point x="862.0659916575" y="211" type="line"/>
			<point x="854.6977055247" y="147"/>
			<point x="888.87556197" y="37"/>
			<point x="930.1826908763" y="0" type="qcurve"/>
			<point x="691.07241035" y="-25.2553710938" type="line"/>
			<point x="655.4388654281" y="24.2874755859"/>
			<point x="662.0391461898" y="151.6035766602"/>
			<point x="648.5401837875" y="176.0906982422" type="qcurve"/>
			<point x="558.0249860336" y="98.9930419922"/>
			<point x="365.9072492172" y="-5"/>
			<point x="233.993491893" y="-5" type="qcurve" smooth="yes"/>
			<point x="139.9774396469" y="-5"/>
			<point x="-4.2513427734" y="133"/>
		</contour>
		<contour>
			<point x="185.823059082" y="339" type="qcurve" smooth="yes"/>
			<point x="175.823059082" y="221"/>
			<point x="288.873608845" y="142.2076416016"/>
			<point x="370.8787357982" y="142.2076416016" type="qcurve" smooth="yes"/>
			<point x="501.0987065013" y="142.2076416016"/>
			<point x="682.0391972239" y="287"/>
			<point x="724.7381207992" y="466" type="qcurve" smooth="yes"/>
			<point x="822.2752812083" y="861.142578125" type="line"/>
			<point x="809.0627441406" y="878.142578125"/>
			<point x="719.168896931" y="939.7702636719"/>
			<point x="636.0589115794" y="939.7702636719" type="qcurve" smooth="yes"/>
			<point x="473.7340824778" y="939.7702636719"/>
			<point x="200.823059082" y="526.6752929688"/>
		</contour>
	</outline>
	<anchor name="bottom" x="345" y="0"/>
	<anchor name="ogonek" x="732" y="0"/>
	<anchor name="top" x="608" y="1000"/>
</glyph>
<glyph name="b" format="2">
	<unicode hex="0062"/>
	<advance width="1066"/>
	<outline>
		<contour>
			<point x="78.5100097656" y="395" type="qcurve" smooth="yes"/>
			<point x="123.5100097656" y="594" type="line"/>
			<point x="291.1010742188" y="1446.5913085938" type="line"/>
			<point x="176.9478759766" y="1434.5913085938" type="line"/>
			<point x="194.8568115234" y="1535.5" type="line"/>
			<point x="423.1541137695" y="1600.5" type="line"/>
			<point x="453.1541137695" y="1537.5" type="line"/>
			<point x="241.6541137695" y="556" type="line"/>
			<point x="176.6541137695" y="233" type="line" smooth="yes"/>
			<point x="154.3748779297" y="125.5107421875"/>
			<point x="264.3916015625" y="58.9745483398"/>
			<point x="355.0568237305" y="60.9745483398" type="qcurve" smooth="yes"/>
			<point x="522.8317871094" y="64.9745483398"/>
			<point x="799.5335693359" y="433.0266113281"/>
			<point x="799.9018554688" y="624.8100585938" type="qcurve" smooth="yes"/>
			<point x="799.9018554688" y="724.0431518555"/>
			<point x="711.3259887695" y="824.4170532227"/>
			<point x="615.7403564453" y="824.4170532227" type="qcurve" smooth="yes"/>
			<point x="528.5816650391" y="824.4170532227"/>
			<point x="311.4694824219" y="712.4102783203"/>
			<point x="224.931640625" y="657.7109985352" type="qcurve"/>
			<point x="214.9235839844" y="746.5387573242" type="line"/>
			<point x="273.759765625" y="809.4420776367"/>
			<point x="642.3510131836" y="1019.8100585938"/>
			<point x="758.9804077148" y="1019.8100585938" type="qcurve" smooth="yes"/>
			<point x="853.55078125" y="1019.8100585938"/>
			<point x="971.3682250977" y="827.8100585938"/>
			<point x="971.1840820312" y="671.8100585938" type="qcurve" smooth="yes"/>
			<point x="970.8157958984" y="373.0266113281"/>
			<point x="540.3157348633" y="-19"/>
			<point x="391.5933227539" y="-19" type="qcurve" smooth="yes"/>
			<point x="154.5680541992" y="-19"/>
			<point x="33.5100097656" y="198"/>
		</contour>
	</outline>
	<anchor name="bottom" x="571" y="0"/>
	<anchor name="top" x="571" y="1533"/>
</glyph>
<glyph name="e" format="2">
	<unicode hex="0065"/>
	<advance width="815"/>
	<outline>
		<contour>
			<point x="4.1732283119" y="525.5828857422" type="qcurve" smooth="yes"/>
			<point x="12.5046492103" y="729.2974243164"/>
			<point x="237.0567121986" y="1055.2692871094"/>
			<point x="521.2949324135" y="1055.2692871094" type="qcurve" smooth="yes"/>
			<point x="604.3013411049" y="1055.2692871094"/>
			<point x="737.8646955971" y="930.9633178711"/>
			<point x="741.3753157142" y="815.6697387695" type="qcurve" smooth="yes"/>
			<point x="735.5056257728" y="778.5803833008"/>
			<point x="719.3042097572" y="705.5016479492"/>
			<point x="726.376780558" y="676.3871459961" type="qcurve"/>
			<point x="780.4929304603" y="668.5733032227" type="line"/>
			<point x="747.8191023353" y="561.4587402344" type="line"/>
			<point x="763.5238142494" y="563.1829223633"/>
			<point x="658.1702986244" y="567.7001342773"/>
			<point x="633.4675398353" y="567.4587402344" type="qcurve" smooth="yes"/>
			<point x="132.513499308" y="561.4587402344" type="line"/>
			<point x="142.7919416908" y="655.7594604492" type="line"/>
			<point x="588.5366926674" y="663.9686889648" type="line"/>
			<point x="595.9014387611" y="685.3759155273"/>
			<point x="605.7829084877" y="747.9509887695"/>
			<point x="609.8877668861" y="789.2330932617" type="qcurve" smooth="yes"/>
			<point x="615.3609114174" y="854.6082763672"/>
			<point x="561.0604353431" y="949.9924316406"/>
			<point x="492.9719954017" y="949.9924316406" type="qcurve" smooth="yes"/>
			<point x="399.0357161049" y="949.9924316406"/>
			<point x="197.5264387611" y="743.7953491211"/>
			<point x="164.513499308" y="524.2158203125" type="qcurve" smooth="yes"/>
			<point x="140.9766340736" y="352.4467773438"/>
			<point x="205.810374308" y="115.8137817383"/>
			<point x="314.3755598549" y="111.6953125" type="qcurve" smooth="yes"/>
			<point x="479.175608683" y="103.4796142578"/>
			<point x="614.8577375892" y="218.3141479492"/>
			<point x="653.3626204017" y="316.999206543" type="qcurve"/>
			<point x="686.2456770424" y="278.1861572266" type="line"/>
			<point x="694.5941267494" y="232.9057006836" type="line"/>
			<point x="658.213511515" y="127.1384887695"/>
			<point x="489.9955549721" y="-22.6965942383"/>
			<point x="433.5806379799" y="-23" type="qcurve" smooth="yes"/>
			<point x="231.6497908119" y="-20.0275878906"/>
			<point x="-14.2720841881" y="282.4416503906"/>
		</contour>
	</outline>
	<anchor name="bottom" x="339" y="0"/>
	<anchor name="ogonek" x="495" y="0"/>
	<anchor name="top" x="601" y="1000"/>
</glyph>
<glyph name="g" format="2">
	<unicode hex="0067"/>
	<advance width="1007"/>
	<outline>
		<contour>
			<point x="-0.194152832" y="296.3513183594" type="qcurve" smooth="yes"/>
			<point x="-10.8258666992" y="590.8645019531"/>
			<point x="263.2534179688" y="1030.7829589844"/>
			<point x="565.9547729492" y="1030.7829589844" type="qcurve" smooth="yes"/>
			<point x="667.2719116211" y="1030.7829589844"/>
			<point x="812.2744750977" y="980.7829589844"/>
			<point x="852.5123291016" y="945.7829589844" type="qcurve"/>
			<point x="735.0355224609" y="1008.7829589844" type="line"/>
			<point x="900.0355224609" y="1003.7829589844" type="line"/>
			<point x="962.0355224609" y="919.7829589844" type="line"/>
			<point x="881.5491943359" y="579" type="line" smooth="yes"/>
			<point x="825.8194580078" y="347.4594726562"/>
			<point x="766.9281005859" y="177.0980834961"/>
			<point x="720.848815918" y="38.0980834961" type="qcurve" smooth="yes"/>
			<point x="650.5757446289" y="-178.8366088867"/>
			<point x="388.6843261719" y="-458.9019165039"/>
			<point x="177.4556884766" y="-427.9019165039" type="qcurve"/>
			<point x="116.7928466797" y="-361.9019165039" type="line"/>
			<point x="126.4291992188" y="-289.6295776367" type="line"/>
			<point x="199.6403808594" y="-288.629699707" type="line" smooth="yes"/>
			<point x="405.55859375" y="-288.7034912109"/>
			<point x="534.1311645508" y="-117.9172363281"/>
			<point x="628.4164428711" y="169.7795410156" type="qcurve" smooth="yes"/>
			<point x="648.6577148438" y="213.8158569336" type="line"/>
			<point x="618.1099853516" y="128.5056152344"/>
			<point x="450.6231079102" y="-24"/>
			<point x="297.2564086914" y="-24" type="qcurve" smooth="yes"/>
			<point x="159.2106323242" y="-24"/>
			<point x="4.6217041016" y="158.557800293"/>
		</contour>
		<contour>
			<point x="132.7778320312" y="292.3513183594" type="qcurve" smooth="yes"/>
			<point x="137.5936889648" y="201.8099975586"/>
			<point x="248.8336181641" y="128.2537841797"/>
			<point x="335.20703125" y="128.2537841797" type="qcurve" smooth="yes"/>
			<point x="469.8301391602" y="128.2537841797"/>
			<point x="651.4555053711" y="315.0377197266"/>
			<point x="696.1182861328" y="498.6475830078" type="qcurve" smooth="yes"/>
			<point x="789.2249145508" y="847.4830322266" type="line"/>
			<point x="771.5932006836" y="869.4830322266"/>
			<point x="666.6088256836" y="926.4830322266"/>
			<point x="576.7382202148" y="926.4830322266" type="qcurve" smooth="yes"/>
			<point x="396.859375" y="926.4830322266"/>
			<point x="123.9619750977" y="475.8101806641"/>
		</contour>
	</outline>
	<anchor name="bottom" x="324" y="-416"/>
	<anchor name="top" x="603" y="1000"/>
</glyph>
<glyph name="h" format="2">
	<unicode hex="0068"/>
	<advance width="1082"/>
	<outline>
		<contour>
			<point x="84.8815917969" y="-21" type="line"/>
			<point x="9.8815917969" y="99" type="line"/>
			<point x="123.8815917969" y="599" type="line"/>
			<point x="296.1089477539" y="1447.2731933594" type="line"/>
			<point x="127.8194580078" y="1429.0913085938" type="line"/>
			<point x="147.7283935547" y="1533" type="line"/>
			<point x="422.2670898438" y="1598" type="line"/>
			<point x="449.2670898438" y="1535" type="line"/>
			<point x="298.2670898438" y="671" type="line"/>
			<point x="183.2670898438" y="178" type="line"/>
			<point x="245.2670898438" y="33" type="line"/>
		</contour>
		<contour>
			<point x="698.2397460938" y="-24" type="line"/>
			<point x="627.2397460938" y="130" type="line"/>
			<point x="759.7430419922" y="660.8187866211" type="line" smooth="yes"/>
			<point x="775.830871582" y="719.4961547852"/>
			<point x="718.5620727539" y="808.751159668"/>
			<point x="643.1471557617" y="808.751159668" type="qcurve" smooth="yes"/>
			<point x="556.5355834961" y="808.751159668"/>
			<point x="355.399230957" y="675.0991821289"/>
			<point x="221.8680419922" y="533.9350585938" type="qcurve"/>
			<point x="213.0647583008" y="645.8153686523" type="line"/>
			<point x="420.2387084961" y="870.2595214844"/>
			<point x="719.4584960938" y="1020.5395507812"/>
			<point x="787.2208251953" y="1020.5395507812" type="qcurve" smooth="yes"/>
			<point x="879.7895507812" y="1020.5395507812"/>
			<point x="946.1206665039" y="790.7185058594"/>
			<point x="908.7331542969" y="631.5395507812" type="qcurve" smooth="yes"/>
			<point x="799.3524169922" y="156.9995117188" type="line"/>
			<point x="919.7784423828" y="176.9995117188" type="line"/>
			<point x="910.7784423828" y="87" type="line"/>
		</contour>
	</outline>
	<anchor name="bottom" x="420" y="0"/>
	<anchor name="center" x="347" y="1202"/>
	<anchor name="top" x="424" y="1534"/>
</glyph>
<glyph name="k" format="2">
	<unicode hex="006B"/>
	<advance width="783"/>
	<outline>
		<contour>
			<point x="426.7380371094" y="396.9250488281" type="line"/>
			<point x="66.3669433594" y="143.4340820312" type="line"/>
			<point x="54.7786254883" y="271.3890380859" type="line"/>
			<point x="420.0471191406" y="624.7268676758" type="line"/>
			<point x="524.9652099609" y="620.8494873047"/>
			<point x="543.380065918" y="866.7803955078"/>
			<point x="468.8062744141" y="866.7803955078" type="qcurve" smooth="yes"/>
			<point x="439.188659668" y="866.7803955078"/>
			<point x="288.4514770508" y="745.2030639648"/>
			<point x="292.6141967773" y="725.6782836914" type="qcurve"/>
			<point x="273.7534179688" y="618.1882324219" type="line"/>
			<point x="184.2670898438" y="179" type="line"/>
			<point x="244.2670898438" y="29" type="line"/>
			<point x="90.8815917969" y="-21" type="line"/>
			<point x="8.8815917969" y="101" type="line"/>
			<point x="124.8815917969" y="598" type="line"/>
			<point x="297.3589477539" y="1444.5913696289" type="line"/>
			<point x="129.0694580078" y="1431.0913085938" type="line"/>
			<point x="147.9783935547" y="1533" type="line"/>
			<point x="422.5170898438" y="1597" type="line"/>
			<point x="451.5170898438" y="1534" type="line"/>
			<point x="324.4666137695" y="863.214050293" type="line"/>
			<point x="317.0671386719" y="868.8466796875"/>
			<point x="509.5123901367" y="1040.1882324219"/>
			<point x="594.3345947266" y="1040.1882324219" type="qcurve" smooth="yes"/>
			<point x="663.640625" y="1040.1882324219"/>
			<point x="709.2424926758" y="843.1704101562"/>
			<point x="680.7807006836" y="739.7502441406" type="qcurve" smooth="yes"/>
			<point x="672.4729003906" y="673.5017700195" type="line"/>
			<point x="644.1705932617" y="628.7109985352" type="line"/>
			<point x="498.8569335938" y="411.3008422852" type="line"/>
		</contour>
		<contour>
			<point x="531.4262084961" y="470.0918579102" type="line"/>
			<point x="646.0873413086" y="155.9995117188" type="line"/>
			<point x="745.4452514648" y="171.9995117188" type="line"/>
			<point x="740.4452514648" y="87" type="line"/>
			<point x="566.23046875" y="-19.1362304688" type="line" smooth="yes"/>
			<point x="561.1618652344" y="-24.0484619141"/>
			<point x="588.8193969727" y="-16.7375488281"/>
			<point x="579.8620605469" y="13" type="qcurve" smooth="yes"/>
			<point x="389.7777709961" y="410.0319213867" type="line"/>
		</contour>
	</outline>
	<anchor name="bottom" x="448" y="0"/>
	<anchor name="top" x="578" y="1534"/>
</glyph>
<glyph name="o" format="2">
	<unicode hex="006F"/>
	<advance width="1052"/>
	<outline>
		<contour>
			<point x="3.2489977174" y="489.8273925781" type="qcurve" smooth="yes"/>
			<point x="25.1822862917" y="721.9401855469"/>
			<point x="312.9379295692" y="1038.6940917969"/>
			<point x="560.5424547487" y="1031.2801513672" type="qcurve" smooth="yes"/>
			<point x="819.7817406044" y="1023.4118041992"/>
			<point x="992.4016746864" y="731.5512084961"/>
			<point x="968.2842430458" y="525.1716308594" type="qcurve" smooth="yes"/>
			<point x="943.5571312294" y="308.0643920898"/>
			<point x="668.8004783974" y="-10.1778564453"/>
			<point x="405.1186266237" y="-16.2811279297" type="qcurve" smooth="yes"/>
			<point x="185.6824974403" y="-26.481628418"/>
			<point x="-15.7195081419" y="284.9650268555"/>
		</contour>
		<contour>
			<point x="183.807042151" y="510.5855712891" type="qcurve" smooth="yes"/>
			<point x="158.2544857903" y="334.458618268"/>
			<point x="250.6432237917" y="79.6608886719"/>
			<point x="379.4543199831" y="64.9265136719" type="qcurve" smooth="yes"/>
			<point x="508.8041124635" y="51.9265136719"/>
			<point x="749.4643887767" y="346.8537628963"/>
			<point x="770.3829698854" y="538.8153686523" type="qcurve" smooth="yes"/>
			<point x="786.5208558976" y="686.8402368479"/>
			<point x="695.8392687135" y="952.8216552734"/>
			<point x="565.682042151" y="959.8216552734" type="qcurve" smooth="yes"/>
			<point x="424.0245104128" y="967.8216552734"/>
			<point x="208.2390060006" y="687.7764960492"/>
		</contour>
	</outline>
	<anchor name="bottom" x="358" y="0"/>
	<anchor name="center" x="461" y="500"/>
	<anchor name="ogonek" x="514" y="0"/>
	<anchor name="top" x="584" y="1000"/>
	<anchor name="topright" x="663" y="1000"/>
	<anchor name="GRKtop" x="584" y="1000"/>
	<anchor name="yu_dash" x="83" y="498"/>
</glyph>
<glyph name="p" format="2">
	<unicode hex="0070"/>
	<advance width="1060"/>
	<outline>
		<contour>
			<point x="-85.1459960938" y="-392.301940918" type="line"/>
			<point x="136.2543945312" y="572" type="line"/>
			<point x="191.8488769531" y="836.8911132812" type="line"/>
			<point x="157.8488769531" y="963.8911132812" type="line"/>
			<point x="85.1655273438" y="1024.8911132812" type="line"/>
			<point x="282.1655273438" y="977.8911132812" type="line"/>
			<point x="301.787109375" y="785.6156616211" type="line"/>
			<point x="361.1849975586" y="868.305847168"/>
			<point x="661.028503418" y="1019.8911132812"/>
			<point x="781.0256958008" y="1019.8911132812" type="qcurve" smooth="yes"/>
			<point x="884.5727539062" y="1019.8911132812"/>
			<point x="969.0986328125" y="827.1345214844"/>
			<point x="968.7303466797" y="670.3776855469" type="qcurve" smooth="yes"/>
			<point x="968.3620605469" y="368.6752929688"/>
			<point x="744.3851318359" y="9"/>
			<point x="400.496887207" y="9" type="qcurve" smooth="yes"/>
			<point x="295.548034668" y="9"/>
			<point x="169.9930419922" y="37"/>
			<point x="146.5710449219" y="50" type="qcurve"/>
			<point x="60.3433227539" y="-323.8023681641" type="line"/>
			<point x="183.6328125" y="-340.3932495117" type="line"/>
			<point x="170.7238769531" y="-412.301940918" type="line"/>
			<point x="-25.7459716797" y="-452.301940918" type="line"/>
		</contour>
		<contour>
			<point x="172.5561523438" y="133.0296630859" type="line"/>
			<point x="190.7402954102" y="125.2999267578"/>
			<point x="302.1716918945" y="100.2999267578"/>
			<point x="356.9645385742" y="101.2999267578" type="qcurve" smooth="yes"/>
			<point x="577.0822143555" y="106.2999267578"/>
			<point x="771.3556518555" y="353.3779296875"/>
			<point x="787.7239379883" y="518.3776855469" type="qcurve" smooth="yes"/>
			<point x="802.0922241211" y="648.7290039062"/>
			<point x="702.5747680664" y="814.2188720703"/>
			<point x="610.5696411133" y="814.2188720703" type="qcurve" smooth="yes"/>
			<point x="531.3350219727" y="814.2188720703"/>
			<point x="377.0775146484" y="745.4050292969"/>
			<point x="295.9271240234" y="678.4050292969" type="qcurve"/>
			<point x="262.5710449219" y="531" type="line"/>
		</contour>
	</outline>
	<anchor name="bottom" x="599" y="0"/>
	<anchor name="top" x="599" y="1000"/>
</glyph>
<glyph name="q" format="2">
	<unicode hex="0071"/>
	<advance width="1055"/>
	<outline>
		<contour>
			<point x="3.4299926758" y="282.7026367188" type="qcurve" smooth="yes"/>
			<point x="9.982421875" y="601.4860839844"/>
			<point x="326.6257324219" y="1031.1342773438"/>
			<point x="569.8129272461" y="1031.1342773438" type="qcurve" smooth="yes"/>
			<point x="703.4190673828" y="1031.1342773438"/>
			<point x="871.6313476562" y="971.1342773438"/>
			<point x="919.6057739258" y="934.1342773438" type="qcurve"/>
			<point x="749.1974487305" y="1012.1342773438" type="line"/>
			<point x="924.1974487305" y="1003.1342773438" type="line"/>
			<point x="974.1974487305" y="928.1342773438" type="line"/>
			<point x="836.0895385742" y="407" type="line"/>
			<point x="672.2162475586" y="-301.1205444336" type="line"/>
			<point x="774.5512084961" y="-320.3932495117" type="line"/>
			<point x="751.6422729492" y="-412.301940918" type="line"/>
			<point x="537.3449707031" y="-424.301940918" type="line"/>
			<point x="516.6449584961" y="-375.301940918" type="line"/>
			<point x="636.9454345703" y="168" type="line"/>
			<point x="628.9454345703" y="168" type="line"/>
			<point x="552.5263671875" y="72.4367675781"/>
			<point x="397.2133178711" y="-15"/>
			<point x="288.9686889648" y="-15" type="qcurve" smooth="yes"/>
			<point x="174.7863769531" y="-15"/>
			<point x="0.2458496094" y="134.2583618164"/>
		</contour>
		<contour>
			<point x="136.4364013672" y="293.7026367188" type="qcurve" smooth="yes"/>
			<point x="136.2522583008" y="221.5767211914"/>
			<point x="214.2604370117" y="132.9514770508"/>
			<point x="299.6896362305" y="132.9514770508" type="qcurve" smooth="yes"/>
			<point x="425.7484741211" y="132.9514770508"/>
			<point x="679.5747680664" y="329.3975219727"/>
			<point x="716.9454345703" y="488" type="qcurve" smooth="yes"/>
			<point x="803.9871826172" y="861.0435791016" type="line"/>
			<point x="778.1713256836" y="880.0435791016"/>
			<point x="676.4432373047" y="929.0435791016"/>
			<point x="608.1746826172" y="929.0435791016" type="qcurve" smooth="yes"/>
			<point x="440.6993408203" y="929.0435791016"/>
			<point x="136.8046875" y="503.4638061523"/>
		</contour>
	</outline>
	<anchor name="bottom" x="594" y="0"/>
	<anchor name="top" x="594" y="1000"/>
</glyph>
<glyph name="r" format="2">
	<unicode hex="0072"/>
	<advance width="981"/>
	<outline>
		<contour>
			<point x="115.4752807617" y="-20.3023071289" type="line"/>
			<point x="22.9414672852" y="110.7669067383" type="line"/>
			<point x="148.3829956055" y="537.8830566406" type="line"/>
			<point x="186.8576660156" y="811.8012084961" type="line"/>
			<point x="45.5679931641" y="844.0262451172" type="line"/>
			<point x="53.2043457031" y="923.7310180664" type="line"/>
			<point x="63.4396972656" y="1034.8306884766" type="line"/>
			<point x="356.7642822266" y="1003.6676025391" type="line"/>
			<point x="348.3911743164" y="840.5999755859" type="line"/>
			<point x="359.9357910156" y="785.2440185547" type="line"/>
			<point x="219.8685913086" y="145.8650512695" type="line"/>
			<point x="383.9684448242" y="166.8516235352" type="line"/>
			<point x="380.6661376953" y="81.8290405273" type="line"/>
		</contour>
		<contour>
			<point x="704.9080200195" y="527.9423217773" type="line"/>
			<point x="716.0680541992" y="886.9474487305" type="line"/>
			<point x="632.7601237135" y="883.9449229425"/>
			<point x="376.3876937394" y="763.1602156166"/>
			<point x="223.6787109375" y="570.9522094727" type="qcurve"/>
			<point x="230.8583984375" y="677.8787231445" type="line"/>
			<point x="332.4580227067" y="827.355060122"/>
			<point x="667.6952549792" y="1027.4566040039"/>
			<point x="809.5562744141" y="1027.4566040039" type="qcurve" smooth="yes"/>
			<point x="929.428033417" y="1027.4566040039"/>
			<point x="1036.5278930664" y="916.1611604662"/>
			<point x="1036.5278930664" y="824.22265625" type="qcurve" smooth="yes"/>
			<point x="1036.5278930664" y="721.9306329585"/>
			<point x="878.6484156872" y="469.4792255475"/>
			<point x="788.6567382812" y="476.8860473633" type="qcurve" smooth="yes"/>
		</contour>
	</outline>
	<anchor name="bottom" x="282" y="0"/>
	<anchor name="top" x="486" y="1000"/>
</glyph>
<glyph name="v" format="2">
	<unicode hex="0076"/>
	<advance width="936"/>
	<outline>
		<contour>
			<point x="191.882019043" y="1.2663574219" type="line"/>
			<point x="170.4949951172" y="513.0054931641" type="line"/>
			<point x="149.241394043" y="873.4037475586" type="line"/>
			<point x="62.6487426758" y="850.6764526367" type="line"/>
			<point x="67.2850952148" y="936.5395507812" type="line"/>
			<point x="246.3516845703" y="1031.5395507812" type="line"/>
			<point x="313.5607910156" y="1016.5395507812" type="line"/>
			<point x="346.1741333008" y="464.9736328125" type="line"/>
			<point x="350.537902832" y="202.4841918945" type="line"/>
			<point x="349.7717895508" y="100.5249023438" type="line"/>
			<point x="355.998840332" y="100.5249023438" type="line"/>
			<point x="498.1091918945" y="226.145324707" type="line"/>
			<point x="682.8928222656" y="445.3659057617"/>
			<point x="747.1371459961" y="677.6112670898"/>
			<point x="751.1371459961" y="780.6727294922" type="qcurve" smooth="yes"/>
			<point x="755.1371459961" y="857.7838134766"/>
			<point x="724.1497192383" y="944.4852294922"/>
			<point x="651.1497192383" y="993.8466796875" type="qcurve" smooth="yes"/>
			<point x="674.1497192383" y="995.8870239258"/>
			<point x="725.9772338867" y="1025.309753418"/>
			<point x="779.3233032227" y="1025.309753418" type="qcurve" smooth="yes"/>
			<point x="859.3638305664" y="1025.309753418"/>
			<point x="960.018371582" y="938.9126586914"/>
			<point x="954.018371582" y="843.2973632812" type="qcurve" smooth="yes"/>
			<point x="945.018371582" y="735.3461914062"/>
			<point x="543.3395996094" y="150.8556518555"/>
			<point x="324.0402832031" y="-4.7336425781" type="qcurve"/>
		</contour>
	</outline>
	<anchor name="bottom" x="513" y="0"/>
	<anchor name="top" x="513" y="1000"/>
</glyph>
<glyph name="x" format="2">
	<unicode hex="0078"/>
	<advance width="1020"/>
	<outline>
		<contour>
			<point x="4.29296875" y="34.1330566406" type="qcurve"/>
			<point x="-43.2084960938" y="86.1330566406" type="line"/>
			<point x="-19.0722045898" y="167.3598022461" type="line"/>
			<point x="50.3834228516" y="163.3598022461" type="line" smooth="yes"/>
			<point x="130.8424072266" y="158.0118408203"/>
			<point x="262.635559082" y="196.8573608398"/>
			<point x="342.4906005859" y="229.0687866211" type="qcurve" smooth="yes"/>
			<point x="392.5651245117" y="251.8200683594"/>
			<point x="444.7238769531" y="310.0330810547"/>
			<point x="512.8178710938" y="378.0219116211" type="qcurve"/>
			<point x="316.6875" y="870.9491577148" type="line"/>
			<point x="167.4436035156" y="852.6764526367" type="line"/>
			<point x="170.0799560547" y="935.5395507812" type="line"/>
			<point x="327.8604736328" y="1030.5395507812" type="line"/>
			<point x="431.8604736328" y="1004.5395507812" type="line"/>
			<point x="475.1964111328" y="845.5980224609" type="line"/>
			<point x="492.4105224609" y="768.5699462891" type="line"/>
			<point x="519.4105224609" y="796.5699462891" type="line"/>
			<point x="550.7694702148" y="850.5333862305" type="line" smooth="yes"/>
			<point x="566.7011108398" y="873.4873046875"/>
			<point x="622.9201660156" y="940.5545043945"/>
			<point x="678.2612304688" y="970.9565429688" type="qcurve" smooth="yes"/>
			<point x="727.2225952148" y="1000.0786132812"/>
			<point x="861.2026367188" y="1043.4064941406"/>
			<point x="931.5609130859" y="1043.4064941406" type="qcurve" smooth="yes"/>
			<point x="1011.9122314453" y="1043.4064941406"/>
			<point x="1101.4615478516" y="956.4064941406"/>
			<point x="1099.4615478516" y="894.4064941406" type="qcurve" smooth="yes"/>
			<point x="1096.4615478516" y="827.4064941406"/>
			<point x="1012.5069580078" y="692.4064941406"/>
			<point x="975.5069580078" y="671.4064941406" type="qcurve"/>
			<point x="904.5069580078" y="685.4064941406" type="line"/>
			<point x="903.3796386719" y="838.8696289062" type="line" smooth="yes"/>
			<point x="902.6477050781" y="850.2680664062"/>
			<point x="875.8350830078" y="879.5473022461"/>
			<point x="838.991394043" y="879.5473022461" type="qcurve" smooth="yes"/>
			<point x="796.8561401367" y="879.5473022461"/>
			<point x="678.3668212891" y="821.5663452148"/>
			<point x="626.4866333008" y="775.8046875" type="qcurve" smooth="yes"/>
			<point x="586.467956543" y="738.7295532227"/>
			<point x="571.8026123047" y="699.6986694336"/>
			<point x="531.7592163086" y="648.5065917969" type="qcurve"/>
			<point x="725.9565429688" y="154.9995117188" type="line"/>
			<point x="903.927734375" y="171.9995117188" type="line"/>
			<point x="903.927734375" y="83" type="line"/>
			<point x="723.3520507812" y="-16.2502441406" type="line"/>
			<point x="612.3520507812" y="29.7497558594" type="line"/>
			<point x="574.7872314453" y="170.0413818359" type="line"/>
			<point x="556.3348999023" y="242.5289306641" type="line"/>
			<point x="555.3348999023" y="242.5289306641" type="line"/>
			<point x="520.4532470703" y="182.8811645508" type="line"/>
			<point x="475.4082641602" y="134.4362182617"/>
			<point x="373.8128662109" y="39.6868286133"/>
			<point x="317.0994873047" y="25.6444091797" type="qcurve" smooth="yes"/>
			<point x="212.0577392578" y="-10.546875"/>
			<point x="77.4552612305" y="-13.2153930664"/>
		</contour>
	</outline>
	<anchor name="bottom" x="522" y="0"/>
	<anchor name="top" x="522" y="1000"/>
	<anchor name="cy_descender" x="832" y="134"/>
	<anchor name="center" x="432" y="502"/>
</glyph>
<glyph name="y" format="2">
	<unicode hex="0079"/>
	<advance width="947"/>
	<outline>
		<contour>
			<point x="-357.9431762695" y="-373.9019165039" type="line"/>
			<point x="-346.9431762695" y="-315.9019165039" type="line"/>
			<point x="-215.5547485352" y="-300.9019165039" type="line" smooth="yes"/>
			<point x="-74.303527832" y="-286.9019165039"/>
			<point x="197.483215332" y="-220.502746582"/>
			<point x="320.6174926758" y="-81.7729492188" type="qcurve" smooth="yes"/>
			<point x="409.2662963867" y="0" type="line"/>
			<point x="247.0030517578" y="0" type="line"/>
			<point x="259.6643676758" y="24.8381347656"/>
			<point x="163.2041015625" y="748.6764526367"/>
			<point x="146.8801879883" y="874.6764526367" type="qcurve"/>
			<point x="24.0452880859" y="850.6764526367" type="line"/>
			<point x="29.681640625" y="936.5395507812" type="line"/>
			<point x="222.4931640625" y="1032.5395507812" type="line"/>
			<point x="283.5645751953" y="1015.5395507812" type="line"/>
			<point x="320.5645751953" y="946.5395507812" type="line"/>
			<point x="407.4490966797" y="174.9663085938" type="line"/>
			<point x="417.9782104492" y="63.4036865234" type="line"/>
			<point x="418.9782104492" y="63.4036865234" type="line"/>
			<point x="513.9735717773" y="189.1103515625" type="line" smooth="yes"/>
			<point x="666.0072631836" y="411.089050293"/>
			<point x="739.1148071289" y="727.97265625"/>
			<point x="742.1148071289" y="888.0856933594" type="qcurve" smooth="yes"/>
			<point x="743.1148071289" y="932.7406005859"/>
			<point x="828.4743652344" y="971.1205444336"/>
			<point x="755.4743652344" y="1003.6041870117" type="qcurve" smooth="yes"/>
			<point x="778.4743652344" y="1015.6734619141"/>
			<point x="830.9920043945" y="1022.8120117188"/>
			<point x="865.3719482422" y="1022.8120117188" type="qcurve" smooth="yes"/>
			<point x="951.6826171875" y="1022.8120117188"/>
			<point x="1004.8052978516" y="954.2255249023"/>
			<point x="999.8052978516" y="941.8107299805" type="qcurve" smooth="yes"/>
			<point x="990.8052978516" y="882.8425292969"/>
			<point x="648.7105102539" y="231.2803344727"/>
			<point x="449.9197998047" y="-20.6373291016" type="qcurve" smooth="yes"/>
			<point x="346.0108642578" y="-119.0692138672" type="line" smooth="yes"/>
			<point x="156.7391357422" y="-344.2004394531"/>
			<point x="-13.6658325195" y="-425.9019165039"/>
			<point x="-236.6204223633" y="-431.9019165039" type="qcurve"/>
		</contour>
	</outline>
	<anchor name="bottom" x="782" y="0"/>
	<anchor name="top" x="504" y="1000"/>
</glyph>
<glyph name="jdotless" format="2">
	<unicode hex="0237"/>
	<advance width="420"/>
	<outline>
		<contour>
			<point x="173.6375732422" y="818.6764526367" type="qcurve"/>
			<point x="24.3024902344" y="850.6764526367" type="line"/>
			<point x="31.9388427734" y="935.5395507812" type="line"/>
			<point x="84.2361450195" y="1030.5395507812" type="line"/>
			<point x="372.2361450195" y="993.5395507812" type="line"/>
			<point x="383.2361450195" y="930.5395507812" type="line"/>
			<point x="336.5064086914" y="756.5395507812" type="line"/>
			<point x="251.3984985352" y="350" type="line"/>
			<point x="185.2053222656" y="-61.3466796875"/>
			<point x="-206.0708007812" y="-479"/>
			<point x="-372.1615600586" y="-479" type="qcurve"/>
			<point x="-515.9484863281" y="-419" type="line"/>
			<point x="-490.2213134766" y="-329.1369018555" type="line"/>
			<point x="-347.9064941406" y="-326.5005493164" type="line" smooth="yes"/>
			<point x="-122.0166015625" y="-323.5005493164"/>
			<point x="15.3082275391" y="-50.3452758789"/>
			<point x="57.0725097656" y="186.4995727539" type="qcurve" smooth="yes"/>
			<point x="71.8759765625" y="266.1889648438"/>
			<point x="141.7407226562" y="643.6208496094"/>
		</contour>
	</outline>
	<anchor name="bottom" x="88" y="-436"/>
	<anchor name="top" x="320" y="1000"/>
	<anchor name="_liga" x="0" y="0"/>
</glyph>
